# xmcd CD database file
#
# Track frame offsets:
#	150
#	13740
#	28353
#	40916
#	56908
#	72562
#	87122
#	101306
#	117429
#	131947
#	147000
#	166615
#	185561
#	199101
#	213535
#	237344
#	255405
#	267815
#	282695
#	295565
#	308796
#
# Disc length: 4318 seconds
#
# Revision: 0
# Processed by: cddbd v1.5.2PL0 Copyright (c) Steve Scherf et al.
# Submitted via: Feurio! 1.68 - http://www.feurio.com
#
DISCID=3f10dc15
DTITLE=SLAVONSKI DUKATI - Sokac
DYEAR=1900
DGENRE=
TTITLE0=sokac
TTITLE1=moja drago
TTITLE2=tri tenora
TTITLE3=samo za tebe znam
TTITLE4=sadila sam bor zeleni
TTITLE5=pokora
TTITLE6=hercegovka
TTITLE7=viruj mi dado (blues verzija)
TTITLE8=probudi se sokadijo
TTITLE9=cilas
TTITLE10=grujin splet no. 1
TTITLE11=pokora
TTITLE12=dundino kolo
TTITLE13=kolo kukunjesce
TTITLE14=grujin splet no. 2
TTITLE15=kolo bosancica
TTITLE16=aprilsko kolo
TTITLE17=cika perino kolo
TTITLE18=kolo mista
TTITLE19=galop kolo
TTITLE20=sokacko kolo
EXTD=
EXTT0=
EXTT1=
EXTT2=
EXTT3=
EXTT4=
EXTT5=
EXTT6=
EXTT7=
EXTT8=
EXTT9=
EXTT10=
EXTT11=
EXTT12=
EXTT13=
EXTT14=
EXTT15=
EXTT16=
EXTT17=
EXTT18=
EXTT19=
EXTT20=
PLAYORDER=
